<svg width="60" height="60" viewBox="0 0 60 60" fill="none" xmlns="http://www.w3.org/2000/svg">
<path d="M30 0C13.4582 0 0 13.4582 0 30C0 46.5418 13.4582 60 30 60C46.5418 60 60 46.5418 60 30C60 13.4582 46.5418 0 30 0ZM22.7567 16.849C24.5841 14.912 27.1558 13.8462 30 13.8462C32.8442 13.8462 35.3928 14.9192 37.2274 16.8663C39.0865 18.8394 39.9909 21.4904 39.7774 24.3404C39.3505 30 34.9659 34.6154 30 34.6154C25.0341 34.6154 20.6409 30 20.2226 24.3389C20.0106 21.4659 20.9135 18.8063 22.7567 16.849ZM30 55.3846C26.6112 55.3869 23.2566 54.7086 20.1348 53.39C17.0131 52.0715 14.188 50.1395 11.8269 47.7087C13.1792 45.7802 14.9021 44.1406 16.8952 42.8856C20.5716 40.5288 25.2245 39.2308 30 39.2308C34.7755 39.2308 39.4284 40.5288 43.1005 42.8856C45.0952 44.14 46.8197 45.7797 48.1731 47.7087C45.8122 50.1398 42.9871 52.0719 39.8653 53.3905C36.7436 54.7091 33.3888 55.3872 30 55.3846Z" fill="white"/>
</svg>
