<svg width="40" height="40" viewBox="0 0 40 40" fill="none" xmlns="http://www.w3.org/2000/svg">
<path d="M38.75 39.375H1.25C1.08424 39.375 0.925268 39.3092 0.808058 39.1919C0.690848 39.0747 0.625 38.9158 0.625 38.75V1.25C0.625 1.08424 0.690848 0.925268 0.808058 0.808058C0.925268 0.690848 1.08424 0.625 1.25 0.625H38.75C38.9158 0.625 39.0747 0.690848 39.1919 0.808058C39.3092 0.925268 39.375 1.08424 39.375 1.25V38.75C39.375 38.9158 39.3092 39.0747 39.1919 39.1919C39.0747 39.3092 38.9158 39.375 38.75 39.375ZM1.875 38.125H38.125V1.875H1.875V38.125Z" fill="white" fill-opacity="0.8"/>
<path d="M38.2828 31.6625L28.7516 20.9125L20.4453 29.1937C20.3832 29.2562 20.3087 29.3048 20.2265 29.3365C20.1443 29.3681 20.0564 29.382 19.9685 29.3773C19.8806 29.3726 19.7946 29.3493 19.7163 29.3091C19.638 29.2688 19.5691 29.2125 19.5141 29.1438L10.0016 17.2563L1.73906 27.8813L0.757812 27.1187L9.50781 15.8687C9.56604 15.7931 9.64081 15.7318 9.7264 15.6896C9.81199 15.6473 9.90611 15.6252 10.0016 15.625C10.0954 15.6254 10.188 15.647 10.2724 15.6881C10.3568 15.7292 10.4309 15.7888 10.4891 15.8625L20.0578 27.8125L28.3078 19.5563C28.3662 19.4983 28.4355 19.4525 28.5116 19.4214C28.5878 19.3903 28.6693 19.3745 28.7516 19.375C28.8367 19.3769 28.9205 19.3962 28.9979 19.4317C29.0752 19.4671 29.1446 19.518 29.2016 19.5812L39.2016 30.8313L38.2828 31.6625Z" fill="white" fill-opacity="0.8"/>
<path d="M25 18.125C23.8875 18.125 22.7999 17.7951 21.8749 17.177C20.9499 16.5589 20.2289 15.6804 19.8032 14.6526C19.3774 13.6248 19.266 12.4938 19.4831 11.4026C19.7001 10.3115 20.2359 9.3092 21.0225 8.52253C21.8092 7.73586 22.8115 7.20013 23.9026 6.98309C24.9938 6.76604 26.1248 6.87744 27.1526 7.30318C28.1804 7.72892 29.0589 8.44989 29.677 9.37492C30.2951 10.2999 30.625 11.3875 30.625 12.5C30.625 13.9918 30.0324 15.4226 28.9775 16.4775C27.9226 17.5324 26.4918 18.125 25 18.125ZM25 8.125C24.1347 8.125 23.2888 8.38159 22.5694 8.86232C21.8499 9.34305 21.2892 10.0263 20.958 10.8258C20.6269 11.6252 20.5403 12.5049 20.7091 13.3535C20.8779 14.2022 21.2946 14.9817 21.9064 15.5936C22.5183 16.2054 23.2978 16.6221 24.1465 16.7909C24.9952 16.9597 25.8748 16.8731 26.6742 16.542C27.4737 16.2108 28.1569 15.6501 28.6377 14.9306C29.1184 14.2112 29.375 13.3653 29.375 12.5C29.375 11.3397 28.9141 10.2269 28.0936 9.40641C27.2731 8.58594 26.1603 8.125 25 8.125Z" fill="white" fill-opacity="0.8"/>
</svg>
